<svg width="128" height="128" viewBox="0 0 128 128" fill="none" xmlns="http://www.w3.org/2000/svg" role="img" aria-labelledby="title desc">
  <title id="title">SilentWhale mark</title>
  <desc id="desc">A dark pink whale and privacy mark on a black field.</desc>
  <rect width="128" height="128" rx="30" fill="#050406"/>
  <path fill="#A80F4F" d="M19 73.3c5.8-18.4 23.7-31.2 45.7-31.2h13.6c5.2 0 10.2-2 14-5.6l10.2-9.8c1.4-1.3 3.7-.4 3.8 1.6l.8 14.9 13.7 5.9c1.8.8 1.9 3.3.2 4.3l-13.1 7.5-1.2 12.6c-1.7 18.1-17 31.8-35.2 31.8H46.6C28.1 105.3 14 90.9 19 73.3Z"/>
  <path fill="#050406" d="M77.2 62.7c0-7.7-6.2-13.9-13.9-13.9S49.4 55 49.4 62.7c0 5 2.7 9.4 6.7 11.8l-2.5 14.8h19.5l-2.5-14.8c4-2.4 6.6-6.8 6.6-11.8Z"/>
  <path fill="#050406" d="M33.8 79.2c10.9 6.3 25.1 9.5 42.4 9.5 12.3 0 22.6-2.6 30.5-7.6-5.3 11.4-17.1 19-31.4 19H47.5c-10.9 0-19.7-4.4-24.2-11.8-2.6-4.3.9-9.5 5.8-8.7 1.5.2 3.1.1 4.7-.4Z" opacity=".32"/>
  <path fill="#E43A83" d="M78.3 42.1c5.2 0 10.2-2 14-5.6l10.2-9.8c1.4-1.3 3.7-.4 3.8 1.6l.8 14.9 13.7 5.9c1.8.8 1.9 3.3.2 4.3l-13.1 7.5-.5 5.4c-8-15.1-22.4-24.2-41-24.2h11.9Z"/>
</svg>
